<svg width="21" height="21" xmlns="http://www.w3.org/2000/svg" xmlns:xlink="http://www.w3.org/1999/xlink" xml:space="preserve" overflow="hidden"><g transform="translate(-450 -244)"><path d="M454.944 259.733 457.167 259.733 457.167 254.178 454.944 254.178 454.944 259.733ZM463.833 259.733 466.056 259.733 466.056 248.622 463.833 248.622 463.833 259.733ZM459.389 259.733 461.611 259.733 461.611 256.4 459.389 256.4 459.389 259.733ZM459.389 254.178 461.611 254.178 461.611 251.955 459.389 251.955 459.389 254.178ZM452.722 264.177C452.111 264.177 451.588 263.96 451.153 263.525 450.718 263.09 450.5 262.566 450.5 261.955L450.5 246.4C450.5 245.789 450.718 245.265 451.153 244.83 451.588 244.395 452.111 244.177 452.722 244.177L468.278 244.177C468.889 244.177 469.412 244.395 469.847 244.83 470.282 245.265 470.5 245.789 470.5 246.4L470.5 261.955C470.5 262.566 470.282 263.09 469.847 263.525 469.412 263.96 468.889 264.177 468.278 264.177L452.722 264.177Z" fill="#204730"/></g></svg>