<svg width="26" height="21" xmlns="http://www.w3.org/2000/svg" xmlns:xlink="http://www.w3.org/1999/xlink" xml:space="preserve" overflow="hidden"><g transform="translate(-493 -288)"><path d="M504.564 306.926C504.997 307.36 504.997 308.063 504.564 308.497 504.129 308.931 503.426 308.931 502.992 308.497L494.103 299.608C493.669 299.174 493.669 298.471 494.103 298.037L502.992 289.148C503.426 288.714 504.129 288.714 504.564 289.148 504.997 289.582 504.997 290.285 504.564 290.719L496.46 298.823 504.564 306.926ZM517.897 306.926C518.331 307.36 518.331 308.063 517.897 308.497 517.463 308.931 516.759 308.931 516.325 308.497L507.437 299.608C507.003 299.174 507.003 298.471 507.437 298.037L516.325 289.148C516.759 288.714 517.463 288.714 517.897 289.148 518.331 289.582 518.331 290.285 517.897 290.719L509.794 298.823 517.897 306.926Z" fill="#9BDAB2" fill-rule="evenodd"/></g></svg>