<svg width="26" height="21" xmlns="http://www.w3.org/2000/svg" xmlns:xlink="http://www.w3.org/1999/xlink" xml:space="preserve" overflow="hidden"><g transform="translate(-582 -288)"><path d="M596.437 290.074C596.003 289.64 596.003 288.937 596.437 288.503 596.87 288.069 597.574 288.069 598.008 288.503L606.897 297.392C607.331 297.826 607.331 298.529 606.897 298.963L598.008 307.852C597.574 308.286 596.87 308.286 596.437 307.852 596.003 307.418 596.003 306.715 596.437 306.281L604.54 298.177 596.437 290.074ZM583.103 290.074C582.669 289.64 582.669 288.937 583.103 288.503 583.537 288.069 584.241 288.069 584.675 288.503L593.563 297.392C593.997 297.826 593.997 298.529 593.563 298.963L584.675 307.852C584.241 308.286 583.537 308.286 583.103 307.852 582.669 307.418 582.669 306.715 583.103 306.281L591.206 298.177 583.103 290.074Z" fill="#9BDAB2" fill-rule="evenodd"/></g></svg>