<svg width="26" height="21" xmlns="http://www.w3.org/2000/svg" xmlns:xlink="http://www.w3.org/1999/xlink" xml:space="preserve" overflow="hidden"><g transform="translate(-381 -328)"><path d="M382.889 334.844 382.889 330.4C382.889 329.789 383.106 329.265 383.542 328.83 383.977 328.395 384.5 328.177 385.111 328.177L402.889 328.177C403.5 328.177 404.023 328.395 404.458 328.83 404.893 329.265 405.111 329.789 405.111 330.4L405.111 334.844 402.889 334.844 402.889 330.4 385.111 330.4 385.111 334.844 382.889 334.844ZM385.111 344.844C384.5 344.844 383.977 344.627 383.542 344.191 383.106 343.756 382.889 343.233 382.889 342.622L382.889 337.066 385.111 337.066 385.111 342.622 402.889 342.622 402.889 337.066 405.111 337.066 405.111 342.622C405.111 343.233 404.893 343.756 404.458 344.191 404.023 344.627 403.5 344.844 402.889 344.844L385.111 344.844ZM381.778 348.177 381.778 345.955 406.222 345.955 406.222 348.177 381.778 348.177ZM382.889 337.066 382.889 334.844 389.556 334.844C389.759 334.844 389.954 334.9 390.139 335.011 390.324 335.122 390.463 335.27 390.556 335.455L391.861 338.039 395.278 332.066C395.37 331.9 395.5 331.765 395.667 331.664 395.833 331.562 396.018 331.511 396.222 331.511 396.426 331.511 396.62 331.562 396.806 331.664 396.991 331.765 397.13 331.918 397.222 332.122L398.583 334.844 405.111 334.844 405.111 337.066 397.889 337.066C397.685 337.066 397.491 337.015 397.306 336.914 397.12 336.812 396.982 336.659 396.889 336.455L396.167 334.983 392.75 340.955C392.657 341.141 392.518 341.279 392.333 341.372 392.148 341.465 391.954 341.511 391.75 341.511 391.546 341.511 391.357 341.455 391.181 341.344 391.005 341.233 390.87 341.085 390.778 340.9L388.861 337.066 382.889 337.066Z" fill="#204730"/></g></svg>