<svg width="16" height="21" xmlns="http://www.w3.org/2000/svg" xmlns:xlink="http://www.w3.org/1999/xlink" xml:space="preserve" overflow="hidden"><g transform="translate(-519 -307)"><path d="M523 323.177 531 323.177 531 321.177 523 321.177 523 323.177ZM523 319.177 531 319.177 531 317.177 523 317.177 523 319.177ZM521 327.177C520.45 327.177 519.979 326.982 519.588 326.59 519.196 326.198 519 325.728 519 325.177L519 309.177C519 308.628 519.196 308.157 519.588 307.765 519.979 307.373 520.45 307.177 521 307.177L529 307.177 535 313.177 535 325.177C535 325.728 534.804 326.198 534.412 326.59 534.021 326.982 533.55 327.177 533 327.177L521 327.177ZM528 314.177 528 309.177 521 309.177 521 325.177 533 325.177 533 314.177 528 314.177Z" fill="#204730"/></g></svg>