<svg width="16" height="21" xmlns="http://www.w3.org/2000/svg" xmlns:xlink="http://www.w3.org/1999/xlink" xml:space="preserve" overflow="hidden"><g transform="translate(-472 -363)"><path d="M480 373.177C480.55 373.177 481.021 372.982 481.413 372.59 481.804 372.198 482 371.727 482 371.177 482 370.628 481.804 370.157 481.413 369.765 481.021 369.373 480.55 369.177 480 369.177 479.45 369.177 478.979 369.373 478.587 369.765 478.196 370.157 478 370.628 478 371.177 478 371.727 478.196 372.198 478.587 372.59 478.979 372.982 479.45 373.177 480 373.177ZM480 380.527C482.033 378.661 483.542 376.965 484.525 375.44 485.508 373.915 486 372.561 486 371.378 486 369.561 485.421 368.073 484.263 366.915 483.104 365.757 481.683 365.177 480 365.177 478.317 365.177 476.896 365.757 475.737 366.915 474.579 368.073 474 369.561 474 371.378 474 372.561 474.492 373.915 475.475 375.44 476.458 376.965 477.967 378.661 480 380.527ZM480 383.177C477.317 380.894 475.312 378.773 473.987 376.815 472.663 374.857 472 373.044 472 371.378 472 368.878 472.804 366.886 474.413 365.402 476.021 363.919 477.883 363.177 480 363.177 482.117 363.177 483.979 363.919 485.587 365.402 487.196 366.886 488 368.878 488 371.378 488 373.044 487.337 374.857 486.013 376.815 484.688 378.773 482.683 380.894 480 383.177Z" fill="#204730"/></g></svg>